<?xml version="1.0" standalone="no"?>
<!DOCTYPE svg PUBLIC "-//W3C//DTD SVG 20010904//EN"
 "http://www.w3.org/TR/2001/REC-SVG-20010904/DTD/svg10.dtd">
<svg version="1.0" xmlns="http://www.w3.org/2000/svg"
 width="460.000000pt" height="460.000000pt" viewBox="0 0 460.000000 460.000000"
 preserveAspectRatio="xMidYMid meet">
<metadata>
Created by potrace 1.14, written by Peter Selinger 2001-2017
</metadata>
<g transform="translate(0.000000,460.000000) scale(0.100000,-0.100000)"
fill="#000000" stroke="none">
<path d="M2128 4595 c-2 -2 -32 -6 -68 -9 -243 -20 -517 -100 -765 -221 -397
-193 -721 -486 -951 -858 -54 -87 -149 -272 -171 -332 -6 -16 -23 -61 -37
-100 -24 -64 -63 -193 -71 -233 -1 -9 -8 -35 -13 -57 -6 -22 -14 -65 -17 -95
-4 -30 -9 -58 -11 -61 -17 -29 -25 -416 -11 -559 12 -130 41 -276 81 -424 24
-86 97 -269 151 -375 256 -511 697 -911 1228 -1115 204 -78 381 -122 587 -143
108 -11 454 -8 530 5 36 6 85 14 110 17 140 20 423 110 585 187 320 151 629
402 842 683 206 273 343 567 418 900 22 98 24 106 31 161 3 27 8 60 10 74 3
14 6 111 8 215 3 171 -2 284 -18 370 -3 17 -8 48 -11 70 -5 36 -20 105 -55
244 -30 121 -147 389 -236 541 -205 351 -558 680 -932 869 -215 109 -493 198
-703 226 -24 3 -60 8 -79 11 -38 6 -426 14 -432 9z"/>
</g>
</svg>
